<svg width="14" height="8" viewBox="0 0 14 8" fill="none" xmlns="http://www.w3.org/2000/svg">
<path d="M13.364 0.292999C13.1764 0.105528 12.9221 0.000212225 12.657 0.000212236C12.3918 0.000212248 12.1375 0.105528 11.95 0.292999L6.99995 5.243L2.04995 0.292999C1.86135 0.110841 1.60875 0.010047 1.34655 0.0123253C1.08435 0.0146037 0.833541 0.119773 0.648133 0.305181C0.462724 0.490589 0.357557 0.741402 0.355279 1.0036C0.353 1.2658 0.453794 1.5184 0.635953 1.707L6.29295 7.364C6.48048 7.55147 6.73479 7.65679 6.99995 7.65679C7.26512 7.65679 7.51942 7.55147 7.70695 7.364L13.364 1.707C13.5514 1.51947 13.6567 1.26516 13.6567 0.999999C13.6567 0.734835 13.5514 0.480526 13.364 0.292999Z" fill="#292929"/>
</svg>
